<mxfile host="Electron" agent="Mozilla/5.0 (X11; Linux x86_64) AppleWebKit/537.36 (KHTML, like Gecko) draw.io/27.0.9 Chrome/134.0.6998.205 Electron/35.7.2 Safari/537.36" version="27.0.9">
  <diagram name="Page-1" id="XFBq6Q8ltCKEyMn4VJiC">
    <mxGraphModel dx="983" dy="1798" grid="1" gridSize="10" guides="1" tooltips="1" connect="1" arrows="1" fold="1" page="1" pageScale="1" pageWidth="827" pageHeight="1169" math="0" shadow="0">
      <root>
        <mxCell id="0" />
        <mxCell id="1" parent="0" />
        <mxCell id="NNmZQWTAVeJ4ZJy01lu0-9" style="edgeStyle=orthogonalEdgeStyle;rounded=0;orthogonalLoop=1;jettySize=auto;html=1;entryX=0.75;entryY=0;entryDx=0;entryDy=0;" parent="1" source="NNmZQWTAVeJ4ZJy01lu0-1" target="NNmZQWTAVeJ4ZJy01lu0-5" edge="1">
          <mxGeometry relative="1" as="geometry">
            <Array as="points">
              <mxPoint x="450" y="350" />
              <mxPoint x="450" y="350" />
            </Array>
          </mxGeometry>
        </mxCell>
        <mxCell id="NNmZQWTAVeJ4ZJy01lu0-14" style="edgeStyle=orthogonalEdgeStyle;rounded=0;orthogonalLoop=1;jettySize=auto;html=1;" parent="1" source="NNmZQWTAVeJ4ZJy01lu0-1" target="NNmZQWTAVeJ4ZJy01lu0-13" edge="1">
          <mxGeometry relative="1" as="geometry">
            <Array as="points">
              <mxPoint x="450" y="250" />
              <mxPoint x="450" y="250" />
            </Array>
          </mxGeometry>
        </mxCell>
        <mxCell id="9cON1hZKMhhEr3xIgPFL-4" style="edgeStyle=orthogonalEdgeStyle;rounded=0;orthogonalLoop=1;jettySize=auto;html=1;" parent="1" source="NNmZQWTAVeJ4ZJy01lu0-1" target="NNmZQWTAVeJ4ZJy01lu0-7" edge="1">
          <mxGeometry relative="1" as="geometry" />
        </mxCell>
        <mxCell id="9cON1hZKMhhEr3xIgPFL-5" style="edgeStyle=orthogonalEdgeStyle;rounded=0;orthogonalLoop=1;jettySize=auto;html=1;" parent="1" source="NNmZQWTAVeJ4ZJy01lu0-1" target="NNmZQWTAVeJ4ZJy01lu0-6" edge="1">
          <mxGeometry relative="1" as="geometry" />
        </mxCell>
        <mxCell id="NNmZQWTAVeJ4ZJy01lu0-1" value="Gateway" style="rounded=0;whiteSpace=wrap;html=1;" parent="1" vertex="1">
          <mxGeometry x="360" y="300" width="120" height="60" as="geometry" />
        </mxCell>
        <mxCell id="9cON1hZKMhhEr3xIgPFL-2" style="edgeStyle=orthogonalEdgeStyle;rounded=0;orthogonalLoop=1;jettySize=auto;html=1;entryX=0.5;entryY=0;entryDx=0;entryDy=0;" parent="1" source="NNmZQWTAVeJ4ZJy01lu0-3" target="NNmZQWTAVeJ4ZJy01lu0-13" edge="1">
          <mxGeometry relative="1" as="geometry" />
        </mxCell>
        <mxCell id="9cON1hZKMhhEr3xIgPFL-22" style="edgeStyle=orthogonalEdgeStyle;rounded=0;orthogonalLoop=1;jettySize=auto;html=1;" parent="1" source="NNmZQWTAVeJ4ZJy01lu0-3" target="9cON1hZKMhhEr3xIgPFL-11" edge="1">
          <mxGeometry relative="1" as="geometry" />
        </mxCell>
        <mxCell id="9cON1hZKMhhEr3xIgPFL-23" style="edgeStyle=orthogonalEdgeStyle;rounded=0;orthogonalLoop=1;jettySize=auto;html=1;" parent="1" source="NNmZQWTAVeJ4ZJy01lu0-3" target="9cON1hZKMhhEr3xIgPFL-10" edge="1">
          <mxGeometry relative="1" as="geometry" />
        </mxCell>
        <mxCell id="NNmZQWTAVeJ4ZJy01lu0-3" value="Messages" style="rounded=0;whiteSpace=wrap;html=1;" parent="1" vertex="1">
          <mxGeometry x="250" y="30" width="120" height="60" as="geometry" />
        </mxCell>
        <mxCell id="9cON1hZKMhhEr3xIgPFL-1" style="edgeStyle=orthogonalEdgeStyle;rounded=0;orthogonalLoop=1;jettySize=auto;html=1;entryX=0.5;entryY=0;entryDx=0;entryDy=0;" parent="1" source="NNmZQWTAVeJ4ZJy01lu0-4" target="NNmZQWTAVeJ4ZJy01lu0-13" edge="1">
          <mxGeometry relative="1" as="geometry" />
        </mxCell>
        <mxCell id="9cON1hZKMhhEr3xIgPFL-16" style="edgeStyle=orthogonalEdgeStyle;rounded=0;orthogonalLoop=1;jettySize=auto;html=1;" parent="1" source="NNmZQWTAVeJ4ZJy01lu0-4" target="9cON1hZKMhhEr3xIgPFL-15" edge="1">
          <mxGeometry relative="1" as="geometry" />
        </mxCell>
        <mxCell id="9cON1hZKMhhEr3xIgPFL-18" style="edgeStyle=orthogonalEdgeStyle;rounded=0;orthogonalLoop=1;jettySize=auto;html=1;" parent="1" source="NNmZQWTAVeJ4ZJy01lu0-4" target="9cON1hZKMhhEr3xIgPFL-14" edge="1">
          <mxGeometry relative="1" as="geometry" />
        </mxCell>
        <mxCell id="NNmZQWTAVeJ4ZJy01lu0-4" value="Users" style="rounded=0;whiteSpace=wrap;html=1;" parent="1" vertex="1">
          <mxGeometry x="460" y="30" width="120" height="60" as="geometry" />
        </mxCell>
        <mxCell id="NNmZQWTAVeJ4ZJy01lu0-5" value="Front" style="rounded=0;whiteSpace=wrap;html=1;" parent="1" vertex="1">
          <mxGeometry x="360" y="420" width="120" height="60" as="geometry" />
        </mxCell>
        <mxCell id="9cON1hZKMhhEr3xIgPFL-7" style="edgeStyle=orthogonalEdgeStyle;rounded=0;orthogonalLoop=1;jettySize=auto;html=1;entryX=1;entryY=0.5;entryDx=0;entryDy=0;" parent="1" source="NNmZQWTAVeJ4ZJy01lu0-6" target="NNmZQWTAVeJ4ZJy01lu0-1" edge="1">
          <mxGeometry relative="1" as="geometry" />
        </mxCell>
        <mxCell id="NNmZQWTAVeJ4ZJy01lu0-6" value="MongoDB" style="rounded=0;whiteSpace=wrap;html=1;" parent="1" vertex="1">
          <mxGeometry x="600" y="335" width="120" height="60" as="geometry" />
        </mxCell>
        <mxCell id="9cON1hZKMhhEr3xIgPFL-6" style="edgeStyle=orthogonalEdgeStyle;rounded=0;orthogonalLoop=1;jettySize=auto;html=1;entryX=1;entryY=0.5;entryDx=0;entryDy=0;" parent="1" source="NNmZQWTAVeJ4ZJy01lu0-7" target="NNmZQWTAVeJ4ZJy01lu0-1" edge="1">
          <mxGeometry relative="1" as="geometry" />
        </mxCell>
        <mxCell id="NNmZQWTAVeJ4ZJy01lu0-7" value="Redis" style="rounded=0;whiteSpace=wrap;html=1;" parent="1" vertex="1">
          <mxGeometry x="600" y="265" width="120" height="60" as="geometry" />
        </mxCell>
        <mxCell id="NNmZQWTAVeJ4ZJy01lu0-8" style="edgeStyle=orthogonalEdgeStyle;rounded=0;orthogonalLoop=1;jettySize=auto;html=1;entryX=0.325;entryY=0.95;entryDx=0;entryDy=0;entryPerimeter=0;" parent="1" source="NNmZQWTAVeJ4ZJy01lu0-5" target="NNmZQWTAVeJ4ZJy01lu0-1" edge="1">
          <mxGeometry relative="1" as="geometry">
            <Array as="points">
              <mxPoint x="399" y="400" />
              <mxPoint x="399" y="400" />
            </Array>
          </mxGeometry>
        </mxCell>
        <mxCell id="NNmZQWTAVeJ4ZJy01lu0-15" style="edgeStyle=orthogonalEdgeStyle;rounded=0;orthogonalLoop=1;jettySize=auto;html=1;" parent="1" source="NNmZQWTAVeJ4ZJy01lu0-13" target="NNmZQWTAVeJ4ZJy01lu0-1" edge="1">
          <mxGeometry relative="1" as="geometry">
            <Array as="points">
              <mxPoint x="390" y="250" />
              <mxPoint x="390" y="250" />
            </Array>
          </mxGeometry>
        </mxCell>
        <mxCell id="NNmZQWTAVeJ4ZJy01lu0-16" style="edgeStyle=orthogonalEdgeStyle;rounded=0;orthogonalLoop=1;jettySize=auto;html=1;" parent="1" source="NNmZQWTAVeJ4ZJy01lu0-13" target="NNmZQWTAVeJ4ZJy01lu0-4" edge="1">
          <mxGeometry relative="1" as="geometry">
            <Array as="points">
              <mxPoint x="420" y="130" />
              <mxPoint x="520" y="130" />
            </Array>
          </mxGeometry>
        </mxCell>
        <mxCell id="NNmZQWTAVeJ4ZJy01lu0-17" style="edgeStyle=orthogonalEdgeStyle;rounded=0;orthogonalLoop=1;jettySize=auto;html=1;" parent="1" source="NNmZQWTAVeJ4ZJy01lu0-13" target="NNmZQWTAVeJ4ZJy01lu0-3" edge="1">
          <mxGeometry relative="1" as="geometry" />
        </mxCell>
        <mxCell id="zKEtzJNcvJXjcWGIELS4-8" style="edgeStyle=orthogonalEdgeStyle;rounded=0;orthogonalLoop=1;jettySize=auto;html=1;" edge="1" parent="1" source="NNmZQWTAVeJ4ZJy01lu0-13" target="zKEtzJNcvJXjcWGIELS4-3">
          <mxGeometry relative="1" as="geometry">
            <Array as="points">
              <mxPoint x="420" y="130" />
              <mxPoint x="720" y="130" />
            </Array>
          </mxGeometry>
        </mxCell>
        <mxCell id="zKEtzJNcvJXjcWGIELS4-17" style="edgeStyle=orthogonalEdgeStyle;rounded=0;orthogonalLoop=1;jettySize=auto;html=1;" edge="1" parent="1" source="NNmZQWTAVeJ4ZJy01lu0-13" target="zKEtzJNcvJXjcWGIELS4-12">
          <mxGeometry relative="1" as="geometry">
            <Array as="points">
              <mxPoint x="420" y="130" />
              <mxPoint x="110" y="130" />
            </Array>
          </mxGeometry>
        </mxCell>
        <mxCell id="NNmZQWTAVeJ4ZJy01lu0-13" value="RabbitMQ" style="rounded=0;whiteSpace=wrap;html=1;" parent="1" vertex="1">
          <mxGeometry x="360" y="170" width="120" height="60" as="geometry" />
        </mxCell>
        <mxCell id="9cON1hZKMhhEr3xIgPFL-21" style="edgeStyle=orthogonalEdgeStyle;rounded=0;orthogonalLoop=1;jettySize=auto;html=1;" parent="1" source="9cON1hZKMhhEr3xIgPFL-10" target="NNmZQWTAVeJ4ZJy01lu0-3" edge="1">
          <mxGeometry relative="1" as="geometry" />
        </mxCell>
        <mxCell id="9cON1hZKMhhEr3xIgPFL-10" value="MongoDB" style="rounded=0;whiteSpace=wrap;html=1;" parent="1" vertex="1">
          <mxGeometry x="229.5" y="-70" width="77" height="60" as="geometry" />
        </mxCell>
        <mxCell id="9cON1hZKMhhEr3xIgPFL-20" style="edgeStyle=orthogonalEdgeStyle;rounded=0;orthogonalLoop=1;jettySize=auto;html=1;" parent="1" source="9cON1hZKMhhEr3xIgPFL-11" target="NNmZQWTAVeJ4ZJy01lu0-3" edge="1">
          <mxGeometry relative="1" as="geometry" />
        </mxCell>
        <mxCell id="9cON1hZKMhhEr3xIgPFL-11" value="Redis" style="rounded=0;whiteSpace=wrap;html=1;" parent="1" vertex="1">
          <mxGeometry x="313.5" y="-70" width="77" height="60" as="geometry" />
        </mxCell>
        <mxCell id="9cON1hZKMhhEr3xIgPFL-17" style="edgeStyle=orthogonalEdgeStyle;rounded=0;orthogonalLoop=1;jettySize=auto;html=1;" parent="1" source="9cON1hZKMhhEr3xIgPFL-14" target="NNmZQWTAVeJ4ZJy01lu0-4" edge="1">
          <mxGeometry relative="1" as="geometry" />
        </mxCell>
        <mxCell id="9cON1hZKMhhEr3xIgPFL-14" value="Redis" style="rounded=0;whiteSpace=wrap;html=1;" parent="1" vertex="1">
          <mxGeometry x="524" y="-70" width="77" height="60" as="geometry" />
        </mxCell>
        <mxCell id="9cON1hZKMhhEr3xIgPFL-19" style="edgeStyle=orthogonalEdgeStyle;rounded=0;orthogonalLoop=1;jettySize=auto;html=1;" parent="1" source="9cON1hZKMhhEr3xIgPFL-15" target="NNmZQWTAVeJ4ZJy01lu0-4" edge="1">
          <mxGeometry relative="1" as="geometry" />
        </mxCell>
        <mxCell id="9cON1hZKMhhEr3xIgPFL-15" value="MongoDB" style="rounded=0;whiteSpace=wrap;html=1;" parent="1" vertex="1">
          <mxGeometry x="440" y="-70" width="77" height="60" as="geometry" />
        </mxCell>
        <mxCell id="zKEtzJNcvJXjcWGIELS4-1" style="edgeStyle=orthogonalEdgeStyle;rounded=0;orthogonalLoop=1;jettySize=auto;html=1;" edge="1" source="zKEtzJNcvJXjcWGIELS4-3" target="zKEtzJNcvJXjcWGIELS4-7" parent="1">
          <mxGeometry relative="1" as="geometry" />
        </mxCell>
        <mxCell id="zKEtzJNcvJXjcWGIELS4-2" style="edgeStyle=orthogonalEdgeStyle;rounded=0;orthogonalLoop=1;jettySize=auto;html=1;" edge="1" source="zKEtzJNcvJXjcWGIELS4-3" target="zKEtzJNcvJXjcWGIELS4-5" parent="1">
          <mxGeometry relative="1" as="geometry" />
        </mxCell>
        <mxCell id="zKEtzJNcvJXjcWGIELS4-9" style="edgeStyle=orthogonalEdgeStyle;rounded=0;orthogonalLoop=1;jettySize=auto;html=1;entryX=0.5;entryY=0;entryDx=0;entryDy=0;" edge="1" parent="1" source="zKEtzJNcvJXjcWGIELS4-3" target="NNmZQWTAVeJ4ZJy01lu0-13">
          <mxGeometry relative="1" as="geometry">
            <Array as="points">
              <mxPoint x="720" y="130" />
              <mxPoint x="420" y="130" />
            </Array>
          </mxGeometry>
        </mxCell>
        <mxCell id="zKEtzJNcvJXjcWGIELS4-3" value="Fights" style="rounded=0;whiteSpace=wrap;html=1;" vertex="1" parent="1">
          <mxGeometry x="660" y="30" width="120" height="60" as="geometry" />
        </mxCell>
        <mxCell id="zKEtzJNcvJXjcWGIELS4-4" style="edgeStyle=orthogonalEdgeStyle;rounded=0;orthogonalLoop=1;jettySize=auto;html=1;" edge="1" source="zKEtzJNcvJXjcWGIELS4-5" target="zKEtzJNcvJXjcWGIELS4-3" parent="1">
          <mxGeometry relative="1" as="geometry" />
        </mxCell>
        <mxCell id="zKEtzJNcvJXjcWGIELS4-5" value="Redis" style="rounded=0;whiteSpace=wrap;html=1;" vertex="1" parent="1">
          <mxGeometry x="724" y="-70" width="77" height="60" as="geometry" />
        </mxCell>
        <mxCell id="zKEtzJNcvJXjcWGIELS4-6" style="edgeStyle=orthogonalEdgeStyle;rounded=0;orthogonalLoop=1;jettySize=auto;html=1;" edge="1" source="zKEtzJNcvJXjcWGIELS4-7" target="zKEtzJNcvJXjcWGIELS4-3" parent="1">
          <mxGeometry relative="1" as="geometry" />
        </mxCell>
        <mxCell id="zKEtzJNcvJXjcWGIELS4-7" value="MongoDB" style="rounded=0;whiteSpace=wrap;html=1;" vertex="1" parent="1">
          <mxGeometry x="640" y="-70" width="77" height="60" as="geometry" />
        </mxCell>
        <mxCell id="zKEtzJNcvJXjcWGIELS4-10" style="edgeStyle=orthogonalEdgeStyle;rounded=0;orthogonalLoop=1;jettySize=auto;html=1;" edge="1" source="zKEtzJNcvJXjcWGIELS4-12" target="zKEtzJNcvJXjcWGIELS4-16" parent="1">
          <mxGeometry relative="1" as="geometry" />
        </mxCell>
        <mxCell id="zKEtzJNcvJXjcWGIELS4-11" style="edgeStyle=orthogonalEdgeStyle;rounded=0;orthogonalLoop=1;jettySize=auto;html=1;" edge="1" source="zKEtzJNcvJXjcWGIELS4-12" target="zKEtzJNcvJXjcWGIELS4-14" parent="1">
          <mxGeometry relative="1" as="geometry" />
        </mxCell>
        <mxCell id="zKEtzJNcvJXjcWGIELS4-18" style="edgeStyle=orthogonalEdgeStyle;rounded=0;orthogonalLoop=1;jettySize=auto;html=1;entryX=0.5;entryY=0;entryDx=0;entryDy=0;" edge="1" parent="1" source="zKEtzJNcvJXjcWGIELS4-12" target="NNmZQWTAVeJ4ZJy01lu0-13">
          <mxGeometry relative="1" as="geometry">
            <Array as="points">
              <mxPoint x="110" y="130" />
              <mxPoint x="420" y="130" />
            </Array>
          </mxGeometry>
        </mxCell>
        <mxCell id="zKEtzJNcvJXjcWGIELS4-12" value="World" style="rounded=0;whiteSpace=wrap;html=1;" vertex="1" parent="1">
          <mxGeometry x="50" y="30" width="120" height="60" as="geometry" />
        </mxCell>
        <mxCell id="zKEtzJNcvJXjcWGIELS4-13" style="edgeStyle=orthogonalEdgeStyle;rounded=0;orthogonalLoop=1;jettySize=auto;html=1;" edge="1" source="zKEtzJNcvJXjcWGIELS4-14" target="zKEtzJNcvJXjcWGIELS4-12" parent="1">
          <mxGeometry relative="1" as="geometry" />
        </mxCell>
        <mxCell id="zKEtzJNcvJXjcWGIELS4-14" value="Redis" style="rounded=0;whiteSpace=wrap;html=1;" vertex="1" parent="1">
          <mxGeometry x="114" y="-70" width="77" height="60" as="geometry" />
        </mxCell>
        <mxCell id="zKEtzJNcvJXjcWGIELS4-15" style="edgeStyle=orthogonalEdgeStyle;rounded=0;orthogonalLoop=1;jettySize=auto;html=1;" edge="1" source="zKEtzJNcvJXjcWGIELS4-16" target="zKEtzJNcvJXjcWGIELS4-12" parent="1">
          <mxGeometry relative="1" as="geometry" />
        </mxCell>
        <mxCell id="zKEtzJNcvJXjcWGIELS4-16" value="MongoDB" style="rounded=0;whiteSpace=wrap;html=1;" vertex="1" parent="1">
          <mxGeometry x="30" y="-70" width="77" height="60" as="geometry" />
        </mxCell>
      </root>
    </mxGraphModel>
  </diagram>
</mxfile>
